<svg width="315" height="184" viewBox="0 0 315 184" fill="none" xmlns="http://www.w3.org/2000/svg">
<rect width="145" height="184" rx="30" fill="url(#paint0_linear_486_1564)"/>
<mask id="mask0_486_1564" style="mask-type:alpha" maskUnits="userSpaceOnUse" x="0" y="0" width="145" height="184">
<rect width="145" height="184" rx="30" fill="#ED713C"/>
</mask>
<g mask="url(#mask0_486_1564)">
<circle opacity="0.1" cx="-28" cy="193" r="95" fill="black" stroke="black" stroke-width="36"/>
<path opacity="0.1" d="M278 -26.5C278 42.2781 232.434 92 183 92C133.566 92 88 42.2781 88 -26.5C88 -95.2781 133.566 -145 183 -145C232.434 -145 278 -95.2781 278 -26.5Z" fill="black" stroke="black" stroke-width="36"/>
</g>
<path d="M101.016 145.74L98.4974 146.565L98.7834 147.588L100.257 147.115V153H101.423V145.74H101.016ZM105.16 151.988L106.436 150.635C106.942 150.096 107.327 149.634 107.58 149.227C107.844 148.82 107.976 148.369 107.976 147.874C107.976 146.598 106.953 145.619 105.567 145.619C104.082 145.619 103.125 146.752 103.125 147.94C103.125 148.16 103.147 148.369 103.202 148.567H104.379C104.346 148.347 104.324 148.16 104.324 148.006C104.324 147.258 104.819 146.686 105.556 146.686C106.293 146.686 106.766 147.225 106.766 147.962C106.766 148.578 106.414 149.106 105.611 149.953L103.026 152.736V153H108.229V151.988H105.16ZM108.869 154.331H110.156L115.909 144.42H114.622L108.869 154.331ZM118.168 151.988L119.444 150.635C119.95 150.096 120.335 149.634 120.588 149.227C120.852 148.82 120.984 148.369 120.984 147.874C120.984 146.598 119.961 145.619 118.575 145.619C117.09 145.619 116.133 146.752 116.133 147.94C116.133 148.16 116.155 148.369 116.21 148.567H117.387C117.354 148.347 117.332 148.16 117.332 148.006C117.332 147.258 117.827 146.686 118.564 146.686C119.301 146.686 119.774 147.225 119.774 147.962C119.774 148.578 119.422 149.106 118.619 149.953L116.034 152.736V153H121.237V151.988H118.168ZM127.807 150.734H126.817V148.501H125.651V150.734H123.484L125.541 145.74H124.342L122.021 151.416V151.735H125.651V153H126.817V151.735H127.807V150.734Z" fill="white"/>
<rect x="17" y="137" width="33" height="22" rx="5" fill="url(#paint1_radial_486_1564)"/>
<path fill-rule="evenodd" clip-rule="evenodd" d="M33.5 137.219L29.8334 142.968C29.8334 142.968 31.3 147.999 29.8334 152.311L33.5 158.779L37.1667 152.311C37.1667 152.311 35.7 148.718 37.1667 142.968C37.1667 142.968 33.5 137.219 33.5 137.219Z" stroke="#C7C7B6" stroke-width="1.3" stroke-linejoin="bevel"/>
<path d="M17 143.232H29.8333" stroke="#C7C7B6" stroke-width="1.3" stroke-linejoin="bevel"/>
<path d="M36.7997 143.232H49.9997" stroke="#C7C7B6" stroke-width="1.3" stroke-linejoin="bevel"/>
<path d="M17 152.032H29.8333" stroke="#C7C7B6" stroke-width="1.3" stroke-linejoin="bevel"/>
<path d="M36.7997 152.032H49.9997" stroke="#C7C7B6" stroke-width="1.3" stroke-linejoin="bevel"/>
<path opacity="0.5" d="M21.4824 95.1992C23.2812 95.1992 24.6172 94.1973 24.8984 92.6504V92.6387H23.832L23.8203 92.6504C23.5566 93.623 22.6602 94.2266 21.4824 94.2266C19.8535 94.2266 18.834 92.8965 18.834 90.7812V90.7695C18.834 88.6543 19.8535 87.3184 21.4766 87.3184C22.6426 87.3184 23.5449 88.0039 23.8262 89.0879L23.832 89.0996H24.8926L24.8984 89.0879C24.6465 87.4648 23.2578 86.3457 21.4766 86.3457C19.1797 86.3457 17.75 88.0449 17.75 90.7695V90.7812C17.75 93.5 19.1855 95.1992 21.4824 95.1992ZM28.6543 95.1113C29.5801 95.1113 30.2188 94.7305 30.5293 94.0566H30.623V95H31.6426V88.6836H30.623V92.4219C30.623 93.5293 30.0312 94.209 28.918 94.209C27.9102 94.209 27.5 93.6641 27.5 92.5273V88.6836H26.4805V92.7734C26.4805 94.2676 27.2188 95.1113 28.6543 95.1113ZM33.5469 95H34.5664V91.0859C34.5664 90.1602 35.2578 89.5449 36.2305 89.5449C36.4531 89.5449 36.6465 89.5684 36.8574 89.6035V88.6133C36.7578 88.5957 36.541 88.5723 36.3477 88.5723C35.4922 88.5723 34.9004 88.959 34.6602 89.6211H34.5664V88.6836H33.5469V95ZM38.2344 95H39.2539V91.0859C39.2539 90.1602 39.9453 89.5449 40.918 89.5449C41.1406 89.5449 41.334 89.5684 41.5449 89.6035V88.6133C41.4453 88.5957 41.2285 88.5723 41.0352 88.5723C40.1797 88.5723 39.5879 88.959 39.3477 89.6211H39.2539V88.6836H38.2344V95ZM45.207 95.1113C46.6953 95.1113 47.5977 94.2676 47.8145 93.4121L47.8262 93.3652H46.8066L46.7832 93.418C46.6133 93.7988 46.0859 94.2031 45.2305 94.2031C44.1055 94.2031 43.3848 93.4414 43.3555 92.1348H47.9023V91.7363C47.9023 89.8496 46.8594 88.5723 45.1426 88.5723C43.4258 88.5723 42.3125 89.9082 42.3125 91.8594V91.8652C42.3125 93.8457 43.4023 95.1113 45.207 95.1113ZM45.1367 89.4805C46.0684 89.4805 46.7598 90.0723 46.8652 91.3203H43.373C43.4844 90.1191 44.1992 89.4805 45.1367 89.4805ZM49.4844 95H50.5039V91.2617C50.5039 90.1543 51.1426 89.4746 52.1504 89.4746C53.1582 89.4746 53.627 90.0195 53.627 91.1562V95H54.6465V90.9102C54.6465 89.4102 53.8555 88.5723 52.4375 88.5723C51.5059 88.5723 50.9141 88.9648 50.5977 89.6328H50.5039V88.6836H49.4844V95ZM58.7363 95.0469C58.9355 95.0469 59.1289 95.0234 59.3281 94.9883V94.1211C59.1406 94.1387 59.041 94.1445 58.8594 94.1445C58.2031 94.1445 57.9453 93.8457 57.9453 93.1016V89.5273H59.3281V88.6836H57.9453V87.0488H56.8906V88.6836H55.8945V89.5273H56.8906V93.3594C56.8906 94.5664 57.4355 95.0469 58.7363 95.0469ZM64.3555 95H67.6543C69.4531 95 70.5195 94.1152 70.5195 92.6328V92.6211C70.5195 91.5078 69.7871 90.7168 68.6328 90.5703V90.4766C69.4473 90.3301 70.0918 89.5332 70.0918 88.6602V88.6484C70.0918 87.3594 69.1426 86.5449 67.5898 86.5449H64.3555V95ZM67.3672 87.4766C68.416 87.4766 69.0254 87.9746 69.0254 88.8301V88.8418C69.0254 89.7324 68.375 90.1895 67.0977 90.1895H65.4102V87.4766H67.3672ZM67.3965 91.0977C68.7441 91.0977 69.4355 91.5957 69.4355 92.5684V92.5801C69.4355 93.5527 68.7676 94.0684 67.4961 94.0684H65.4102V91.0977H67.3965ZM73.8477 95.1113C74.6973 95.1113 75.3594 94.7422 75.7578 94.0684H75.8516V95H76.8711V90.6758C76.8711 89.3633 76.0098 88.5723 74.4688 88.5723C73.1211 88.5723 72.1602 89.2402 71.9961 90.2305L71.9902 90.2656H73.0098L73.0156 90.248C73.1797 89.7559 73.6777 89.4746 74.4336 89.4746C75.377 89.4746 75.8516 89.8965 75.8516 90.6758V91.25L74.041 91.3613C72.5703 91.4492 71.7383 92.0996 71.7383 93.2246V93.2363C71.7383 94.3848 72.6465 95.1113 73.8477 95.1113ZM72.7812 93.2129V93.2012C72.7812 92.5742 73.2031 92.2344 74.1641 92.1758L75.8516 92.0703V92.6445C75.8516 93.5469 75.0957 94.2266 74.0586 94.2266C73.3262 94.2266 72.7812 93.8516 72.7812 93.2129ZM78.793 95H79.8125V86.1758H78.793V95ZM83.5039 95.1113C84.3535 95.1113 85.0156 94.7422 85.4141 94.0684H85.5078V95H86.5273V90.6758C86.5273 89.3633 85.666 88.5723 84.125 88.5723C82.7773 88.5723 81.8164 89.2402 81.6523 90.2305L81.6465 90.2656H82.666L82.6719 90.248C82.8359 89.7559 83.334 89.4746 84.0898 89.4746C85.0332 89.4746 85.5078 89.8965 85.5078 90.6758V91.25L83.6973 91.3613C82.2266 91.4492 81.3945 92.0996 81.3945 93.2246V93.2363C81.3945 94.3848 82.3027 95.1113 83.5039 95.1113ZM82.4375 93.2129V93.2012C82.4375 92.5742 82.8594 92.2344 83.8203 92.1758L85.5078 92.0703V92.6445C85.5078 93.5469 84.752 94.2266 83.7148 94.2266C82.9824 94.2266 82.4375 93.8516 82.4375 93.2129ZM88.3906 95H89.4102V91.2617C89.4102 90.1543 90.0488 89.4746 91.0566 89.4746C92.0645 89.4746 92.5332 90.0195 92.5332 91.1562V95H93.5527V90.9102C93.5527 89.4102 92.7617 88.5723 91.3438 88.5723C90.4121 88.5723 89.8203 88.9648 89.5039 89.6328H89.4102V88.6836H88.3906V95ZM97.9824 95.1113C99.5 95.1113 100.35 94.2969 100.607 93.1543L100.619 93.0898L99.6113 93.0957L99.5996 93.1309C99.3652 93.834 98.8262 94.209 97.9766 94.209C96.8516 94.209 96.125 93.2773 96.125 91.8242V91.8125C96.125 90.3887 96.8398 89.4746 97.9766 89.4746C98.8848 89.4746 99.4473 89.9785 99.6055 90.5996L99.6113 90.6172H100.625L100.619 90.582C100.432 89.457 99.5117 88.5723 97.9766 88.5723C96.207 88.5723 95.082 89.8496 95.082 91.8125V91.8242C95.082 93.8281 96.2129 95.1113 97.9824 95.1113ZM104.691 95.1113C106.18 95.1113 107.082 94.2676 107.299 93.4121L107.311 93.3652H106.291L106.268 93.418C106.098 93.7988 105.57 94.2031 104.715 94.2031C103.59 94.2031 102.869 93.4414 102.84 92.1348H107.387V91.7363C107.387 89.8496 106.344 88.5723 104.627 88.5723C102.91 88.5723 101.797 89.9082 101.797 91.8594V91.8652C101.797 93.8457 102.887 95.1113 104.691 95.1113ZM104.621 89.4805C105.553 89.4805 106.244 90.0723 106.35 91.3203H102.857C102.969 90.1191 103.684 89.4805 104.621 89.4805Z" fill="white"/>
<path d="M25.1893 51.8409V49.5234C25.1893 48.6348 24.6484 48.0556 23.7213 48.0556C23.2578 48.0556 22.7556 48.2101 22.4079 48.7123C22.1377 48.2873 21.7515 48.0556 21.172 48.0556C20.7856 48.0556 20.3996 48.1714 20.0904 48.5963V48.1328H19.2793V51.8409H20.0904V49.7937C20.0904 49.1372 20.4381 48.828 20.979 48.828C21.5195 48.828 21.7902 49.1757 21.7902 49.7937V51.8409H22.6013V49.7937C22.6013 49.1372 22.9874 48.828 23.4895 48.828C24.0304 48.828 24.3007 49.1757 24.3007 49.7937V51.8409H25.1893ZM37.2018 48.1328H35.8887V47.0127H35.0775V48.1328H34.3436V48.8666H35.0774V50.5663C35.0774 51.4162 35.4251 51.9182 36.3522 51.9182C36.6998 51.9182 37.0859 51.8024 37.3565 51.6479L37.1246 50.9525C36.8929 51.107 36.6226 51.1457 36.4294 51.1457C36.0432 51.1457 35.8887 50.914 35.8887 50.5276V48.8666H37.2018V48.1328ZM44.0774 48.0554C43.614 48.0554 43.305 48.2873 43.1118 48.5963V48.1328H42.3006V51.8409H43.1118V49.7551C43.1118 49.1372 43.3821 48.7895 43.8842 48.7895C44.0387 48.7895 44.2319 48.8282 44.3864 48.8668L44.6181 48.0943C44.4637 48.0556 44.2319 48.0556 44.0774 48.0556V48.0554ZM33.687 48.4418C33.3006 48.1714 32.7599 48.0556 32.1805 48.0556C31.2535 48.0556 30.6356 48.5191 30.6356 49.253C30.6356 49.8711 31.099 50.2186 31.9102 50.3346L32.2964 50.3733C32.7213 50.4503 32.9531 50.5663 32.9531 50.7595C32.9531 51.0298 32.6441 51.223 32.1032 51.223C31.5625 51.223 31.1376 51.0298 30.8671 50.8367L30.4809 51.4547C30.9058 51.7637 31.4853 51.9182 32.0645 51.9182C33.1461 51.9182 33.7642 51.4162 33.7642 50.7208C33.7642 50.0641 33.262 49.7164 32.4894 49.6007L32.1032 49.562C31.7555 49.5232 31.4853 49.4462 31.4853 49.2144C31.4853 48.944 31.7555 48.7895 32.1805 48.7895C32.6441 48.7895 33.1076 48.9825 33.3393 49.0985L33.687 48.4418ZM55.2405 48.0556C54.7769 48.0556 54.4679 48.2873 54.2747 48.5963V48.1328H53.4635V51.8409H54.2747V49.7551C54.2747 49.1372 54.5451 48.7895 55.0471 48.7895C55.2018 48.7895 55.395 48.8282 55.5495 48.8668L55.7812 48.0943C55.6267 48.0556 55.395 48.0556 55.2405 48.0556ZM44.8886 49.9869C44.8886 51.107 45.661 51.9182 46.8586 51.9182C47.3993 51.9182 47.7855 51.8024 48.1717 51.4934L47.7855 50.8367C47.4765 51.0685 47.1675 51.1843 46.8199 51.1843C46.1632 51.1843 45.6997 50.7208 45.6997 49.9869C45.6997 49.2917 46.1632 48.828 46.8199 48.7895C47.1675 48.7895 47.4765 48.9053 47.7855 49.1372L48.1717 48.4805C47.7855 48.1714 47.3993 48.0556 46.8586 48.0556C45.661 48.0556 44.8886 48.8668 44.8886 49.9869ZM52.3821 49.9869V48.1328H51.571V48.5963C51.3005 48.2488 50.9143 48.0556 50.4121 48.0556C49.3693 48.0556 48.5581 48.8668 48.5581 49.9869C48.5581 51.107 49.3693 51.9182 50.4121 51.9182C50.9529 51.9182 51.3392 51.7251 51.571 51.3774V51.8409H52.3821V49.9869ZM49.4078 49.9869C49.4078 49.3302 49.8327 48.7895 50.5279 48.7895C51.1846 48.7895 51.6482 49.2917 51.6482 49.9869C51.6482 50.6435 51.1846 51.1843 50.5279 51.1843C49.8327 51.1455 49.4078 50.6435 49.4078 49.9869ZM39.7127 48.0556C38.6311 48.0556 37.8585 48.828 37.8585 49.9869C37.8585 51.1457 38.6309 51.9182 39.7512 51.9182C40.292 51.9182 40.8328 51.7637 41.2578 51.4162L40.8714 50.8367C40.5624 51.0685 40.1762 51.223 39.79 51.223C39.2878 51.223 38.7856 50.9912 38.6697 50.3344H41.4123V50.0256C41.451 48.828 40.7556 48.0556 39.7125 48.0556H39.7127ZM39.7127 48.7508C40.2147 48.7508 40.5626 49.06 40.6396 49.6394H38.7084C38.7856 49.1372 39.1333 48.7508 39.7127 48.7508ZM59.837 49.9869V46.665H59.0258V48.5963C58.7554 48.2488 58.3692 48.0556 57.867 48.0556C56.8241 48.0556 56.013 48.8668 56.013 49.9869C56.013 51.107 56.8241 51.9182 57.867 51.9182C58.4079 51.9182 58.7941 51.7251 59.0258 51.3774V51.8409H59.837V49.9869ZM56.8628 49.9869C56.8628 49.3302 57.2876 48.7895 57.9829 48.7895C58.6396 48.7895 59.1031 49.2917 59.1031 49.9869C59.1031 50.6435 58.6396 51.1843 57.9829 51.1843C57.2876 51.1455 56.8628 50.6435 56.8628 49.9869ZM29.747 49.9869V48.1328H28.9359V48.5963C28.6654 48.2488 28.2792 48.0556 27.777 48.0556C26.7341 48.0556 25.923 48.8668 25.923 49.9869C25.923 51.107 26.7341 51.9182 27.777 51.9182C28.3179 51.9182 28.7041 51.7251 28.9359 51.3774V51.8409H29.747V49.9869ZM26.7341 49.9869C26.7341 49.3302 27.1591 48.7895 27.8543 48.7895C28.5109 48.7895 28.9746 49.2917 28.9746 49.9869C28.9746 50.6435 28.5109 51.1843 27.8543 51.1843C27.1591 51.1455 26.7341 50.6435 26.7341 49.9869Z" fill="white"/>
<path d="M34.1888 29.9055C34.1888 25.4635 36.2746 21.5236 39.4805 18.9742C37.1244 17.1201 34.1503 16 30.9057 16C23.2188 16 17 22.2188 17 29.9055C17 37.5921 23.2188 43.811 30.9055 43.811C34.1501 43.811 37.1243 42.6909 39.4805 40.8367C36.2746 38.326 34.1888 34.3475 34.1888 29.9055Z" fill="#EB001B"/>
<path d="M61.9995 29.9055C61.9995 37.5921 55.7808 43.811 48.094 43.811C44.8494 43.811 41.8752 42.6909 39.519 40.8367C42.7636 38.2874 44.8109 34.3475 44.8109 29.9055C44.8109 25.4635 42.7249 21.5236 39.519 18.9742C41.8751 17.1201 44.8494 16 48.094 16C55.7808 16 61.9997 22.2575 61.9997 29.9055H61.9995Z" fill="#F79E1B"/>
<rect x="170" width="145" height="184" rx="30" fill="url(#paint2_linear_486_1564)"/>
<mask id="mask1_486_1564" style="mask-type:alpha" maskUnits="userSpaceOnUse" x="170" y="0" width="145" height="184">
<rect x="170" width="145" height="184" rx="30" fill="#ED713C"/>
</mask>
<g mask="url(#mask1_486_1564)">
<circle opacity="0.1" cx="142" cy="193" r="95" fill="black" stroke="black" stroke-width="36"/>
<path opacity="0.1" d="M448 -26.5C448 42.2781 402.434 92 353 92C303.566 92 258 42.2781 258 -26.5C258 -95.2781 303.566 -145 353 -145C402.434 -145 448 -95.2781 448 -26.5Z" fill="black" stroke="black" stroke-width="36"/>
</g>
<path d="M271.016 145.74L268.497 146.565L268.783 147.588L270.257 147.115V153H271.423V145.74H271.016ZM275.16 151.988L276.436 150.635C276.942 150.096 277.327 149.634 277.58 149.227C277.844 148.82 277.976 148.369 277.976 147.874C277.976 146.598 276.953 145.619 275.567 145.619C274.082 145.619 273.125 146.752 273.125 147.94C273.125 148.16 273.147 148.369 273.202 148.567H274.379C274.346 148.347 274.324 148.16 274.324 148.006C274.324 147.258 274.819 146.686 275.556 146.686C276.293 146.686 276.766 147.225 276.766 147.962C276.766 148.578 276.414 149.106 275.611 149.953L273.026 152.736V153H278.229V151.988H275.16ZM278.869 154.331H280.156L285.909 144.42H284.622L278.869 154.331ZM288.168 151.988L289.444 150.635C289.95 150.096 290.335 149.634 290.588 149.227C290.852 148.82 290.984 148.369 290.984 147.874C290.984 146.598 289.961 145.619 288.575 145.619C287.09 145.619 286.133 146.752 286.133 147.94C286.133 148.16 286.155 148.369 286.21 148.567H287.387C287.354 148.347 287.332 148.16 287.332 148.006C287.332 147.258 287.827 146.686 288.564 146.686C289.301 146.686 289.774 147.225 289.774 147.962C289.774 148.578 289.422 149.106 288.619 149.953L286.034 152.736V153H291.237V151.988H288.168ZM297.807 150.734H296.817V148.501H295.651V150.734H293.484L295.541 145.74H294.342L292.021 151.416V151.735H295.651V153H296.817V151.735H297.807V150.734Z" fill="white"/>
<rect x="187" y="137" width="33" height="22" rx="5" fill="url(#paint3_radial_486_1564)"/>
<path fill-rule="evenodd" clip-rule="evenodd" d="M203.5 137.219L199.833 142.968C199.833 142.968 201.3 147.999 199.833 152.311L203.5 158.779L207.167 152.311C207.167 152.311 205.7 148.718 207.167 142.968C207.167 142.968 203.5 137.219 203.5 137.219Z" stroke="#C7C7B6" stroke-width="1.3" stroke-linejoin="bevel"/>
<path d="M187 143.232H199.833" stroke="#C7C7B6" stroke-width="1.3" stroke-linejoin="bevel"/>
<path d="M206.8 143.232H220" stroke="#C7C7B6" stroke-width="1.3" stroke-linejoin="bevel"/>
<path d="M187 152.032H199.833" stroke="#C7C7B6" stroke-width="1.3" stroke-linejoin="bevel"/>
<path d="M206.8 152.032H220" stroke="#C7C7B6" stroke-width="1.3" stroke-linejoin="bevel"/>
<path opacity="0.5" d="M191.482 95.1992C193.281 95.1992 194.617 94.1973 194.898 92.6504V92.6387H193.832L193.82 92.6504C193.557 93.623 192.66 94.2266 191.482 94.2266C189.854 94.2266 188.834 92.8965 188.834 90.7812V90.7695C188.834 88.6543 189.854 87.3184 191.477 87.3184C192.643 87.3184 193.545 88.0039 193.826 89.0879L193.832 89.0996H194.893L194.898 89.0879C194.646 87.4648 193.258 86.3457 191.477 86.3457C189.18 86.3457 187.75 88.0449 187.75 90.7695V90.7812C187.75 93.5 189.186 95.1992 191.482 95.1992ZM198.654 95.1113C199.58 95.1113 200.219 94.7305 200.529 94.0566H200.623V95H201.643V88.6836H200.623V92.4219C200.623 93.5293 200.031 94.209 198.918 94.209C197.91 94.209 197.5 93.6641 197.5 92.5273V88.6836H196.48V92.7734C196.48 94.2676 197.219 95.1113 198.654 95.1113ZM203.547 95H204.566V91.0859C204.566 90.1602 205.258 89.5449 206.23 89.5449C206.453 89.5449 206.646 89.5684 206.857 89.6035V88.6133C206.758 88.5957 206.541 88.5723 206.348 88.5723C205.492 88.5723 204.9 88.959 204.66 89.6211H204.566V88.6836H203.547V95ZM208.234 95H209.254V91.0859C209.254 90.1602 209.945 89.5449 210.918 89.5449C211.141 89.5449 211.334 89.5684 211.545 89.6035V88.6133C211.445 88.5957 211.229 88.5723 211.035 88.5723C210.18 88.5723 209.588 88.959 209.348 89.6211H209.254V88.6836H208.234V95ZM215.207 95.1113C216.695 95.1113 217.598 94.2676 217.814 93.4121L217.826 93.3652H216.807L216.783 93.418C216.613 93.7988 216.086 94.2031 215.23 94.2031C214.105 94.2031 213.385 93.4414 213.355 92.1348H217.902V91.7363C217.902 89.8496 216.859 88.5723 215.143 88.5723C213.426 88.5723 212.312 89.9082 212.312 91.8594V91.8652C212.312 93.8457 213.402 95.1113 215.207 95.1113ZM215.137 89.4805C216.068 89.4805 216.76 90.0723 216.865 91.3203H213.373C213.484 90.1191 214.199 89.4805 215.137 89.4805ZM219.484 95H220.504V91.2617C220.504 90.1543 221.143 89.4746 222.15 89.4746C223.158 89.4746 223.627 90.0195 223.627 91.1562V95H224.646V90.9102C224.646 89.4102 223.855 88.5723 222.438 88.5723C221.506 88.5723 220.914 88.9648 220.598 89.6328H220.504V88.6836H219.484V95ZM228.736 95.0469C228.936 95.0469 229.129 95.0234 229.328 94.9883V94.1211C229.141 94.1387 229.041 94.1445 228.859 94.1445C228.203 94.1445 227.945 93.8457 227.945 93.1016V89.5273H229.328V88.6836H227.945V87.0488H226.891V88.6836H225.895V89.5273H226.891V93.3594C226.891 94.5664 227.436 95.0469 228.736 95.0469ZM234.355 95H237.654C239.453 95 240.52 94.1152 240.52 92.6328V92.6211C240.52 91.5078 239.787 90.7168 238.633 90.5703V90.4766C239.447 90.3301 240.092 89.5332 240.092 88.6602V88.6484C240.092 87.3594 239.143 86.5449 237.59 86.5449H234.355V95ZM237.367 87.4766C238.416 87.4766 239.025 87.9746 239.025 88.8301V88.8418C239.025 89.7324 238.375 90.1895 237.098 90.1895H235.41V87.4766H237.367ZM237.396 91.0977C238.744 91.0977 239.436 91.5957 239.436 92.5684V92.5801C239.436 93.5527 238.768 94.0684 237.496 94.0684H235.41V91.0977H237.396ZM243.848 95.1113C244.697 95.1113 245.359 94.7422 245.758 94.0684H245.852V95H246.871V90.6758C246.871 89.3633 246.01 88.5723 244.469 88.5723C243.121 88.5723 242.16 89.2402 241.996 90.2305L241.99 90.2656H243.01L243.016 90.248C243.18 89.7559 243.678 89.4746 244.434 89.4746C245.377 89.4746 245.852 89.8965 245.852 90.6758V91.25L244.041 91.3613C242.57 91.4492 241.738 92.0996 241.738 93.2246V93.2363C241.738 94.3848 242.646 95.1113 243.848 95.1113ZM242.781 93.2129V93.2012C242.781 92.5742 243.203 92.2344 244.164 92.1758L245.852 92.0703V92.6445C245.852 93.5469 245.096 94.2266 244.059 94.2266C243.326 94.2266 242.781 93.8516 242.781 93.2129ZM248.793 95H249.812V86.1758H248.793V95ZM253.504 95.1113C254.354 95.1113 255.016 94.7422 255.414 94.0684H255.508V95H256.527V90.6758C256.527 89.3633 255.666 88.5723 254.125 88.5723C252.777 88.5723 251.816 89.2402 251.652 90.2305L251.646 90.2656H252.666L252.672 90.248C252.836 89.7559 253.334 89.4746 254.09 89.4746C255.033 89.4746 255.508 89.8965 255.508 90.6758V91.25L253.697 91.3613C252.227 91.4492 251.395 92.0996 251.395 93.2246V93.2363C251.395 94.3848 252.303 95.1113 253.504 95.1113ZM252.438 93.2129V93.2012C252.438 92.5742 252.859 92.2344 253.82 92.1758L255.508 92.0703V92.6445C255.508 93.5469 254.752 94.2266 253.715 94.2266C252.982 94.2266 252.438 93.8516 252.438 93.2129ZM258.391 95H259.41V91.2617C259.41 90.1543 260.049 89.4746 261.057 89.4746C262.064 89.4746 262.533 90.0195 262.533 91.1562V95H263.553V90.9102C263.553 89.4102 262.762 88.5723 261.344 88.5723C260.412 88.5723 259.82 88.9648 259.504 89.6328H259.41V88.6836H258.391V95ZM267.982 95.1113C269.5 95.1113 270.35 94.2969 270.607 93.1543L270.619 93.0898L269.611 93.0957L269.6 93.1309C269.365 93.834 268.826 94.209 267.977 94.209C266.852 94.209 266.125 93.2773 266.125 91.8242V91.8125C266.125 90.3887 266.84 89.4746 267.977 89.4746C268.885 89.4746 269.447 89.9785 269.605 90.5996L269.611 90.6172H270.625L270.619 90.582C270.432 89.457 269.512 88.5723 267.977 88.5723C266.207 88.5723 265.082 89.8496 265.082 91.8125V91.8242C265.082 93.8281 266.213 95.1113 267.982 95.1113ZM274.691 95.1113C276.18 95.1113 277.082 94.2676 277.299 93.4121L277.311 93.3652H276.291L276.268 93.418C276.098 93.7988 275.57 94.2031 274.715 94.2031C273.59 94.2031 272.869 93.4414 272.84 92.1348H277.387V91.7363C277.387 89.8496 276.344 88.5723 274.627 88.5723C272.91 88.5723 271.797 89.9082 271.797 91.8594V91.8652C271.797 93.8457 272.887 95.1113 274.691 95.1113ZM274.621 89.4805C275.553 89.4805 276.244 90.0723 276.35 91.3203H272.857C272.969 90.1191 273.684 89.4805 274.621 89.4805Z" fill="white"/>
<path d="M203.416 18.9741H215.584V40.8366H203.416V18.9741Z" fill="#FF5F00"/>
<path d="M195.189 51.8409V49.5234C195.189 48.6348 194.648 48.0556 193.721 48.0556C193.258 48.0556 192.756 48.2101 192.408 48.7123C192.138 48.2873 191.751 48.0556 191.172 48.0556C190.786 48.0556 190.4 48.1714 190.09 48.5963V48.1328H189.279V51.8409H190.09V49.7937C190.09 49.1372 190.438 48.828 190.979 48.828C191.52 48.828 191.79 49.1757 191.79 49.7937V51.8409H192.601V49.7937C192.601 49.1372 192.987 48.828 193.49 48.828C194.03 48.828 194.301 49.1757 194.301 49.7937V51.8409H195.189ZM207.202 48.1328H205.889V47.0127H205.078V48.1328H204.344V48.8666H205.077V50.5663C205.077 51.4162 205.425 51.9182 206.352 51.9182C206.7 51.9182 207.086 51.8024 207.357 51.6479L207.125 50.9525C206.893 51.107 206.623 51.1457 206.429 51.1457C206.043 51.1457 205.889 50.914 205.889 50.5276V48.8666H207.202V48.1328ZM214.077 48.0554C213.614 48.0554 213.305 48.2873 213.112 48.5963V48.1328H212.301V51.8409H213.112V49.7551C213.112 49.1372 213.382 48.7895 213.884 48.7895C214.039 48.7895 214.232 48.8282 214.386 48.8668L214.618 48.0943C214.464 48.0556 214.232 48.0556 214.077 48.0556V48.0554ZM203.687 48.4418C203.301 48.1714 202.76 48.0556 202.18 48.0556C201.254 48.0556 200.636 48.5191 200.636 49.253C200.636 49.8711 201.099 50.2186 201.91 50.3346L202.296 50.3733C202.721 50.4503 202.953 50.5663 202.953 50.7595C202.953 51.0298 202.644 51.223 202.103 51.223C201.562 51.223 201.138 51.0298 200.867 50.8367L200.481 51.4547C200.906 51.7637 201.485 51.9182 202.064 51.9182C203.146 51.9182 203.764 51.4162 203.764 50.7208C203.764 50.0641 203.262 49.7164 202.489 49.6007L202.103 49.562C201.756 49.5232 201.485 49.4462 201.485 49.2144C201.485 48.944 201.756 48.7895 202.18 48.7895C202.644 48.7895 203.108 48.9825 203.339 49.0985L203.687 48.4418ZM225.241 48.0556C224.777 48.0556 224.468 48.2873 224.275 48.5963V48.1328H223.464V51.8409H224.275V49.7551C224.275 49.1372 224.545 48.7895 225.047 48.7895C225.202 48.7895 225.395 48.8282 225.549 48.8668L225.781 48.0943C225.627 48.0556 225.395 48.0556 225.241 48.0556ZM214.889 49.9869C214.889 51.107 215.661 51.9182 216.859 51.9182C217.399 51.9182 217.785 51.8024 218.172 51.4934L217.785 50.8367C217.477 51.0685 217.168 51.1843 216.82 51.1843C216.163 51.1843 215.7 50.7208 215.7 49.9869C215.7 49.2917 216.163 48.828 216.82 48.7895C217.168 48.7895 217.477 48.9053 217.785 49.1372L218.172 48.4805C217.785 48.1714 217.399 48.0556 216.859 48.0556C215.661 48.0556 214.889 48.8668 214.889 49.9869ZM222.382 49.9869V48.1328H221.571V48.5963C221.301 48.2488 220.914 48.0556 220.412 48.0556C219.369 48.0556 218.558 48.8668 218.558 49.9869C218.558 51.107 219.369 51.9182 220.412 51.9182C220.953 51.9182 221.339 51.7251 221.571 51.3774V51.8409H222.382V49.9869ZM219.408 49.9869C219.408 49.3302 219.833 48.7895 220.528 48.7895C221.185 48.7895 221.648 49.2917 221.648 49.9869C221.648 50.6435 221.185 51.1843 220.528 51.1843C219.833 51.1455 219.408 50.6435 219.408 49.9869ZM209.713 48.0556C208.631 48.0556 207.858 48.828 207.858 49.9869C207.858 51.1457 208.631 51.9182 209.751 51.9182C210.292 51.9182 210.833 51.7637 211.258 51.4162L210.871 50.8367C210.562 51.0685 210.176 51.223 209.79 51.223C209.288 51.223 208.786 50.9912 208.67 50.3344H211.412V50.0256C211.451 48.828 210.756 48.0556 209.713 48.0556H209.713ZM209.713 48.7508C210.215 48.7508 210.563 49.06 210.64 49.6394H208.708C208.786 49.1372 209.133 48.7508 209.713 48.7508ZM229.837 49.9869V46.665H229.026V48.5963C228.755 48.2488 228.369 48.0556 227.867 48.0556C226.824 48.0556 226.013 48.8668 226.013 49.9869C226.013 51.107 226.824 51.9182 227.867 51.9182C228.408 51.9182 228.794 51.7251 229.026 51.3774V51.8409H229.837V49.9869ZM226.863 49.9869C226.863 49.3302 227.288 48.7895 227.983 48.7895C228.64 48.7895 229.103 49.2917 229.103 49.9869C229.103 50.6435 228.64 51.1843 227.983 51.1843C227.288 51.1455 226.863 50.6435 226.863 49.9869ZM199.747 49.9869V48.1328H198.936V48.5963C198.665 48.2488 198.279 48.0556 197.777 48.0556C196.734 48.0556 195.923 48.8668 195.923 49.9869C195.923 51.107 196.734 51.9182 197.777 51.9182C198.318 51.9182 198.704 51.7251 198.936 51.3774V51.8409H199.747V49.9869ZM196.734 49.9869C196.734 49.3302 197.159 48.7895 197.854 48.7895C198.511 48.7895 198.975 49.2917 198.975 49.9869C198.975 50.6435 198.511 51.1843 197.854 51.1843C197.159 51.1455 196.734 50.6435 196.734 49.9869Z" fill="white"/>
<path d="M204.189 29.9055C204.189 25.4635 206.275 21.5236 209.48 18.9742C207.124 17.1201 204.15 16 200.906 16C193.219 16 187 22.2188 187 29.9055C187 37.5921 193.219 43.811 200.906 43.811C204.15 43.811 207.124 42.6909 209.48 40.8367C206.275 38.326 204.189 34.3475 204.189 29.9055Z" fill="#EB001B"/>
<path d="M232 29.9055C232 37.5921 225.781 43.811 218.094 43.811C214.849 43.811 211.875 42.6909 209.519 40.8367C212.764 38.2874 214.811 34.3475 214.811 29.9055C214.811 25.4635 212.725 21.5236 209.519 18.9742C211.875 17.1201 214.849 16 218.094 16C225.781 16 232 22.2575 232 29.9055H232Z" fill="#F79E1B"/>
<defs>
<linearGradient id="paint0_linear_486_1564" x1="25.5" y1="-29.0526" x2="93.3475" y2="214.211" gradientUnits="userSpaceOnUse">
<stop stop-color="#E4792C"/>
<stop offset="1" stop-color="#F55B46"/>
</linearGradient>
<radialGradient id="paint1_radial_486_1564" cx="0" cy="0" r="1" gradientUnits="userSpaceOnUse" gradientTransform="translate(35.9503 145.014) rotate(141.302) scale(22.37 22.2003)">
<stop stop-color="white"/>
<stop offset="1" stop-color="#DDDCDA"/>
</radialGradient>
<linearGradient id="paint2_linear_486_1564" x1="195.5" y1="-29.0526" x2="263.347" y2="214.211" gradientUnits="userSpaceOnUse">
<stop stop-opacity="0.62"/>
<stop offset="1" stop-opacity="0.62"/>
</linearGradient>
<radialGradient id="paint3_radial_486_1564" cx="0" cy="0" r="1" gradientUnits="userSpaceOnUse" gradientTransform="translate(205.95 145.014) rotate(141.302) scale(22.37 22.2003)">
<stop stop-color="white"/>
<stop offset="1" stop-color="#DDDCDA"/>
</radialGradient>
</defs>
</svg>
