<svg width="375" height="381" viewBox="0 0 375 381" fill="none" xmlns="http://www.w3.org/2000/svg">
<path fill-rule="evenodd" clip-rule="evenodd" d="M72.6182 134.708C88.7893 117.067 110.998 109.043 132.013 97.5953C153.999 85.6194 173.219 65.7478 198.249 66.2737C224.75 66.8304 247.304 83.7495 267.888 100.45C290.815 119.052 314.128 138.992 322.698 167.245C332.012 197.952 335.331 234.92 316.573 260.954C298.176 286.486 260.93 285.36 230.874 294.685C206.578 302.223 183.459 311.297 158.047 310.137C129.751 308.846 100.928 304.677 78.241 287.719C53.2545 269.043 28.1282 243.346 26.9826 212.172C25.8545 181.472 51.8592 157.354 72.6182 134.708Z" fill="#C4C4C4" fill-opacity="0.3"/>
<g clip-path="url(#clip0_309_3478)">
<path d="M140.333 67.4284C140.183 67.7355 140.058 68.054 139.958 68.3808L110.631 77.2199L105.201 72.1321L96.4516 79.3234L105.189 89.2645C105.895 90.0676 106.842 90.6201 107.889 90.8389C108.935 91.0578 110.025 90.9313 110.993 90.4784L142.56 75.7169C143.657 76.444 144.95 76.8196 146.267 76.7939C147.583 76.7682 148.86 76.3424 149.929 75.5731C150.997 74.8037 151.806 73.7273 152.248 72.4871C152.689 71.2468 152.743 69.9015 152.401 68.63C152.06 67.3585 151.339 66.2211 150.336 65.3692C149.332 64.5172 148.093 63.991 146.783 63.8605C145.472 63.7301 144.154 64.0016 143.002 64.6389C141.85 65.2762 140.919 66.2492 140.333 67.4284L140.333 67.4284Z" fill="#C8856A"/>
<path d="M109.658 77.5774L98.868 86.5566C98.561 86.8121 98.2026 86.9984 97.8171 87.1028C97.4316 87.2073 97.0281 87.2274 96.6341 87.1619C96.2401 87.0963 95.8649 86.9467 95.534 86.723C95.2031 86.4994 94.9242 86.2071 94.7165 85.866L87.4375 73.9134C86.1404 72.3351 85.5218 70.3071 85.7174 68.2736C85.9129 66.2401 86.9065 64.3671 88.4806 63.0649C90.0547 61.7628 92.0807 61.1377 94.1148 61.3267C96.1489 61.5157 98.0251 62.5034 99.3323 64.0733L109.733 73.3695C110.03 73.6358 110.267 73.9631 110.427 74.3291C110.587 74.6951 110.666 75.0913 110.659 75.4906C110.651 75.89 110.558 76.2831 110.386 76.6432C110.213 77.0033 109.965 77.3219 109.658 77.5774Z" fill="#3F3D56"/>
<path d="M138.631 227.079L143.328 224.087C143.543 221.461 143.611 218.824 143.53 216.19L141.093 216.812L143.498 215.281C143.365 212.024 143.071 209.876 143.071 209.876C143.071 209.876 133.576 216.044 127.52 224.404L128.553 231.475L126.09 226.53C125.46 227.538 124.894 228.585 124.396 229.665C119.406 240.565 118.921 251.031 123.313 253.041C127.704 255.051 135.309 247.844 140.298 236.944C141.803 233.439 142.762 229.723 143.141 225.927L138.631 227.079Z" fill="#EB001B"/>
<path d="M148.278 237.6L153.845 237.467C155.387 235.33 156.808 233.107 158.1 230.81L155.693 230.084L158.543 230.016C160.112 227.159 160.971 225.169 160.971 225.169C160.971 225.169 149.654 225.54 140.149 229.567L137.378 236.153L137.826 230.647C136.765 231.185 135.74 231.789 134.755 232.455C124.849 239.207 119.025 247.916 121.745 251.906C124.465 255.897 134.7 253.659 144.606 246.907C147.706 244.684 150.448 241.999 152.734 238.945L148.278 237.6Z" fill="#EB001B"/>
<path d="M115.378 247.43L121.455 247.43L123.735 223.791L115.377 223.989L115.378 247.43Z" fill="#C8856A"/>
<path d="M113.828 245.446L125.796 245.446H125.797C127.82 245.446 129.76 246.249 131.19 247.68C132.62 249.11 133.424 251.05 133.424 253.073V253.321L113.828 253.321L113.828 245.446Z" fill="#2F2E41"/>
<path d="M43.6796 229.887L47.6656 234.474L67.2571 221.283L61.374 214.512L43.6796 229.887Z" fill="#C8856A"/>
<path d="M44.1607 227.415L52.0107 236.45L52.0111 236.45C53.3377 237.977 54.0034 239.969 53.8617 241.987C53.7201 244.004 52.7828 245.883 51.2558 247.21L51.0687 247.373L38.2161 232.581L44.1607 227.415Z" fill="#2F2E41"/>
<path d="M40.1913 254.067H205.905C206.061 254.067 206.212 254.005 206.322 253.895C206.433 253.784 206.495 253.634 206.495 253.477C206.495 253.321 206.433 253.17 206.322 253.06C206.212 252.949 206.061 252.887 205.905 252.887H40.1913C40.1136 252.887 40.0367 252.902 39.9649 252.931C39.8931 252.961 39.8278 253.004 39.7728 253.059C39.7178 253.114 39.6742 253.179 39.6444 253.251C39.6146 253.323 39.5993 253.4 39.5993 253.477C39.5993 253.555 39.6146 253.632 39.6444 253.703C39.6742 253.775 39.7178 253.84 39.7728 253.895C39.8278 253.95 39.8931 253.993 39.9649 254.023C40.0367 254.053 40.1136 254.068 40.1913 254.067Z" fill="#003566" fill-opacity="0.3"/>
<path d="M102.026 191.787L114.812 239.159H124.727L122.549 187.35L116.801 136.873L95.9242 135.764L102.026 191.787Z" fill="#2F2E41"/>
<path d="M79.8383 136.873C79.8383 136.873 78.729 144.084 83.1664 151.85C87.6039 159.615 84.8305 185.686 84.8305 185.686L47.3955 223.296C47.3955 223.296 53.2134 233.389 55.9868 232.834C58.7603 232.279 102.58 196.779 102.58 196.779L116.801 139.092L79.8383 136.873Z" fill="#2F2E41"/>
<path d="M100.48 52.9037C107.526 52.9037 113.237 47.1919 113.237 40.146C113.237 33.1 107.526 27.3882 100.48 27.3882C93.4337 27.3882 87.7218 33.1 87.7218 40.146C87.7218 47.1919 93.4337 52.9037 100.48 52.9037Z" fill="#C8856A"/>
<path d="M99.941 60.2064C99.941 60.2064 85.0697 54.5767 85.0697 56.2407C85.0697 57.9048 70.4087 71.975 73.7368 90.2797C77.0649 108.584 80.9477 117.459 79.2836 127.444C77.6196 137.428 78.7289 139.647 78.7289 139.647C78.7289 139.647 117.356 142.975 117.911 139.092C118.465 135.209 116.3 129.287 116.3 127.623C116.3 125.959 100.972 64.4886 99.941 60.2064Z" fill="#3F3D56"/>
<path d="M94.7053 47.8121C95.7381 47.266 96.9379 47.1535 98.0558 46.8141C102.055 45.5997 104.735 41.0784 103.879 36.9871C103.721 36.4623 103.65 35.9152 103.669 35.3674C103.819 34.1557 105.059 33.3738 106.248 33.0962C107.436 32.8186 108.701 32.8589 109.838 32.4124C111.592 31.7231 112.758 29.92 113.011 28.0518C113.192 26.1605 112.771 24.2603 111.807 22.6228L111.378 23.8586C110.723 23.3041 110.237 22.577 109.975 21.7598C109.487 21.8419 109.028 22.0478 108.642 22.358C108.256 22.6681 107.957 23.0721 107.772 23.5312C107.083 23.9377 106.983 22.2683 106.222 22.0221C105.887 21.9803 105.549 22.0638 105.271 22.2565C103.737 22.9721 101.955 22.3602 100.309 21.9636C97.4586 21.2799 94.4877 21.2764 91.636 21.9534C89.7415 22.4053 87.8662 23.1921 86.5105 24.5906C85.4502 25.7944 84.6357 27.194 84.1129 28.7106C82.6588 32.3699 81.6983 36.3294 82.1783 40.2376C82.578 43.4358 83.916 46.444 86.0234 48.8826C87.1213 50.1475 90.7031 54.5603 92.6671 53.808C95.1348 52.8626 91.7977 49.3495 94.7053 47.8121Z" fill="#2F2E41"/>
<path opacity="0.2" d="M116.347 158.475L101.751 196.746L102.488 197.028L117.085 158.757L116.347 158.475Z" fill="black"/>
<path d="M147.857 61.694C146.929 61.6951 146.038 62.0644 145.382 62.721C144.725 63.3776 144.356 64.2678 144.355 65.1963V104.131C144.356 105.059 144.725 105.949 145.382 106.606C146.038 107.262 146.929 107.632 147.857 107.633H334.273C335.202 107.632 336.092 107.262 336.748 106.606C337.405 105.949 337.774 105.059 337.775 104.131V65.1963C337.774 64.2678 337.405 63.3776 336.748 62.721C336.092 62.0644 335.202 61.6951 334.273 61.694L147.857 61.694Z" fill="#003566" fill-opacity="0.3"/>
<path d="M149.117 64.425C148.578 64.4256 148.062 64.6397 147.681 65.0204C147.3 65.4011 147.086 65.9172 147.086 66.4557V102.871C147.086 103.41 147.3 103.926 147.681 104.306C148.062 104.687 148.578 104.901 149.116 104.902H333.014C333.552 104.901 334.068 104.687 334.449 104.306C334.829 103.926 335.043 103.41 335.044 102.871V66.4557C335.043 65.9173 334.829 65.4012 334.449 65.0205C334.068 64.6398 333.552 64.4256 333.014 64.425H149.117Z" fill="white"/>
<path d="M321.467 94.9161C322.34 94.914 323.177 94.566 323.794 93.9484C324.41 93.3309 324.757 92.494 324.759 91.6211C324.76 90.7482 324.415 89.9105 323.8 89.2912C323.185 88.672 322.349 88.3218 321.476 88.3173C321.473 88.3173 321.47 88.3173 321.467 88.3173H165.923C165.05 88.3208 164.214 88.67 163.598 89.2884C162.983 89.9067 162.637 90.7439 162.637 91.6167C162.637 92.4894 162.983 93.3266 163.598 93.945C164.214 94.5634 165.05 94.9126 165.923 94.9161H321.467Z" fill="#003566" fill-opacity="0.3"/>
<path d="M232.854 80.5818C233.288 80.5823 233.717 80.4973 234.118 80.3318C234.519 80.1662 234.883 79.9232 235.19 79.6168C235.497 79.3104 235.74 78.9465 235.906 78.5459C236.072 78.1453 236.158 77.716 236.158 77.2823C236.158 76.8487 236.072 76.4193 235.906 76.0188C235.74 75.6182 235.497 75.2543 235.19 74.9479C234.883 74.6414 234.519 74.3985 234.118 74.2329C233.717 74.0673 233.288 73.9824 232.854 73.9829H165.923C165.489 73.9824 165.06 74.0673 164.659 74.2329C164.258 74.3985 163.894 74.6414 163.587 74.9479C163.28 75.2543 163.037 75.6182 162.871 76.0188C162.705 76.4193 162.619 76.8487 162.619 77.2823C162.619 77.716 162.705 78.1453 162.871 78.5459C163.037 78.9465 163.28 79.3104 163.587 79.6168C163.894 79.9232 164.258 80.1662 164.659 80.3318C165.06 80.4973 165.489 80.5823 165.923 80.5818H232.854Z" fill="#003566"/>
<path d="M175.103 136.817C174.446 136.817 173.816 137.079 173.351 137.543C172.887 138.008 172.625 138.638 172.625 139.295V166.848C172.625 167.506 172.887 168.135 173.351 168.6C173.816 169.065 174.446 169.326 175.103 169.327H307.027C307.684 169.326 308.314 169.065 308.779 168.6C309.243 168.135 309.505 167.506 309.506 166.848V139.295C309.505 138.638 309.243 138.008 308.779 137.543C308.314 137.079 307.684 136.817 307.027 136.817H175.103Z" fill="#003566" fill-opacity="0.3"/>
<path d="M175.994 138.749C175.613 138.75 175.248 138.901 174.979 139.171C174.709 139.44 174.558 139.805 174.557 140.186V165.957C174.558 166.338 174.709 166.703 174.979 166.973C175.248 167.242 175.613 167.394 175.994 167.394H306.136C306.517 167.394 306.882 167.242 307.151 166.973C307.421 166.703 307.572 166.338 307.573 165.957V140.186C307.572 139.805 307.421 139.44 307.151 139.171C306.882 138.901 306.517 138.75 306.136 138.749H175.994Z" fill="white"/>
<path d="M297.965 160.327C298.584 160.328 299.178 160.083 299.616 159.645C300.054 159.208 300.301 158.615 300.302 157.996C300.302 157.377 300.057 156.782 299.62 156.344C299.183 155.906 298.59 155.659 297.971 155.657C297.969 155.657 297.967 155.657 297.965 155.657H187.888C187.269 155.658 186.676 155.905 186.239 156.343C185.802 156.78 185.556 157.374 185.556 157.992C185.556 158.611 185.802 159.204 186.239 159.642C186.676 160.08 187.269 160.327 187.888 160.327H297.965Z" fill="#003566" fill-opacity="0.3"/>
<path d="M235.254 150.183C235.561 150.184 235.865 150.124 236.149 150.006C236.433 149.889 236.69 149.717 236.908 149.501C237.125 149.284 237.297 149.026 237.415 148.743C237.532 148.459 237.593 148.155 237.593 147.848C237.593 147.541 237.532 147.237 237.415 146.954C237.297 146.67 237.125 146.413 236.908 146.196C236.69 145.979 236.433 145.807 236.149 145.69C235.865 145.573 235.561 145.513 235.254 145.513H187.888C187.581 145.513 187.277 145.573 186.993 145.69C186.71 145.807 186.452 145.979 186.235 146.196C186.018 146.413 185.845 146.67 185.728 146.954C185.61 147.237 185.55 147.541 185.55 147.848C185.55 148.155 185.61 148.459 185.728 148.743C185.845 149.026 186.018 149.284 186.235 149.501C186.452 149.717 186.71 149.889 186.993 150.006C187.277 150.124 187.581 150.184 187.888 150.183H235.254Z" fill="#003566"/>
<path d="M175.103 0C174.446 0.000771412 173.816 0.262153 173.351 0.726807C172.887 1.19146 172.625 1.82144 172.625 2.47856V30.0317C172.625 30.6889 172.887 31.3188 173.351 31.7835C173.816 32.2481 174.446 32.5095 175.103 32.5103H307.027C307.684 32.5095 308.314 32.2481 308.779 31.7835C309.243 31.3188 309.505 30.6889 309.506 30.0317V2.47856C309.505 1.82144 309.243 1.19146 308.779 0.726807C308.314 0.262153 307.684 0.000771412 307.027 0H175.103Z" fill="#003566" fill-opacity="0.3"/>
<path d="M175.994 1.93274C175.613 1.93312 175.248 2.08463 174.979 2.35404C174.709 2.62344 174.558 2.98874 174.557 3.36977V29.1405C174.558 29.5215 174.709 29.8868 174.979 30.1562C175.248 30.4256 175.613 30.5772 175.994 30.5775H306.136C306.517 30.5771 306.882 30.4256 307.151 30.1562C307.421 29.8868 307.572 29.5215 307.573 29.1405V3.36977C307.572 2.9888 307.421 2.62352 307.151 2.35411C306.882 2.08469 306.517 1.93315 306.136 1.93274H175.994Z" fill="white"/>
<path d="M297.965 23.5109C298.584 23.5114 299.178 23.266 299.616 22.8288C300.054 22.3915 300.301 21.7981 300.302 21.1791C300.302 20.56 300.057 19.966 299.62 19.5275C299.183 19.0891 298.59 18.8421 297.971 18.8409C297.969 18.8409 297.967 18.8409 297.965 18.8409H187.888C187.269 18.8418 186.676 19.0882 186.239 19.526C185.802 19.9638 185.556 20.5572 185.556 21.1759C185.556 21.7946 185.802 22.388 186.239 22.8258C186.676 23.2636 187.269 23.51 187.888 23.5109H297.965Z" fill="#003566" fill-opacity="0.3"/>
<path d="M235.254 13.3667C235.561 13.3671 235.865 13.3071 236.149 13.1899C236.433 13.0728 236.69 12.9009 236.908 12.684C237.125 12.4671 237.297 12.2096 237.415 11.9261C237.532 11.6426 237.593 11.3387 237.593 11.0317C237.593 10.7248 237.532 10.4209 237.415 10.1374C237.297 9.85389 237.125 9.59633 236.908 9.37947C236.69 9.1626 236.433 8.99068 236.149 8.87353C235.865 8.75639 235.561 8.69633 235.254 8.69678H187.888C187.581 8.69633 187.277 8.75639 186.993 8.87353C186.71 8.99068 186.452 9.1626 186.235 9.37947C186.018 9.59633 185.845 9.85389 185.728 10.1374C185.61 10.4209 185.55 10.7248 185.55 11.0317C185.55 11.3387 185.61 11.6426 185.728 11.9261C185.845 12.2096 186.018 12.4671 186.235 12.684C186.452 12.9009 186.71 13.0728 186.993 13.1899C187.277 13.3071 187.581 13.3671 187.888 13.3667H235.254Z" fill="#003566"/>
<path d="M136.251 89.7803C136.005 90.0168 135.777 90.2723 135.57 90.5446L104.995 88.7154L101.655 82.0658L90.961 85.7943L95.7292 98.1407C96.1145 99.1381 96.8128 99.9837 97.7195 100.55C98.6262 101.117 99.6922 101.375 100.758 101.284L135.479 98.3279C136.258 99.3892 137.342 100.188 138.586 100.618C139.831 101.049 141.177 101.09 142.445 100.737C143.713 100.384 144.844 99.6527 145.687 98.6412C146.529 97.6297 147.044 96.3856 147.163 95.0744C147.281 93.7632 146.997 92.447 146.35 91.3008C145.702 90.1547 144.72 89.233 143.536 88.6583C142.351 88.0836 141.02 87.8831 139.719 88.0835C138.417 88.284 137.208 88.8758 136.251 89.7803L136.251 89.7803Z" fill="#C8856A"/>
<path d="M103.958 88.7149L90.7317 93.417C90.3554 93.5508 89.9546 93.6019 89.5568 93.5669C89.1589 93.5318 88.7733 93.4114 88.4262 93.2139C88.079 93.0164 87.7786 92.7464 87.5452 92.4222C87.3118 92.0981 87.1511 91.7275 87.0738 91.3356L84.3689 77.605C83.6967 75.676 83.8165 73.5593 84.7021 71.7186C85.5877 69.8778 87.1668 68.4632 89.0935 67.7846C91.0201 67.106 93.1372 67.2187 94.9809 68.0982C96.8246 68.9776 98.2445 70.552 98.9295 72.4764L105.481 84.7916C105.668 85.1443 105.778 85.5332 105.801 85.9319C105.825 86.3306 105.762 86.7297 105.618 87.102C105.473 87.4743 105.25 87.8111 104.964 88.0895C104.677 88.3678 104.334 88.5811 103.958 88.7149H103.958Z" fill="#3F3D56"/>
<path d="M149.405 74.1676C154.059 74.1676 157.832 70.3946 157.832 65.7405C157.832 61.0863 154.059 57.3134 149.405 57.3134C144.751 57.3134 140.978 61.0863 140.978 65.7405C140.978 70.3946 144.751 74.1676 149.405 74.1676Z" fill="#003566"/>
</g>
<defs>
<clipPath id="clip0_309_3478">
<rect width="326.174" height="254.067" fill="white" transform="translate(11.601)"/>
</clipPath>
</defs>
</svg>
