<svg width="24" height="25" viewBox="0 0 24 25" fill="none" xmlns="http://www.w3.org/2000/svg">
<path d="M5.15039 23.0996C4.74039 23.0996 4.40039 22.7596 4.40039 22.3496V2.34961C4.40039 1.93961 4.74039 1.59961 5.15039 1.59961C5.56039 1.59961 5.90039 1.93961 5.90039 2.34961V22.3496C5.90039 22.7596 5.56039 23.0996 5.15039 23.0996Z" fill="#667085"/>
<path d="M16.3504 17.0996H5.15039C4.74039 17.0996 4.40039 16.7596 4.40039 16.3496C4.40039 15.9396 4.74039 15.5996 5.15039 15.5996H16.3504C17.4404 15.5996 17.9504 15.3096 18.0504 15.0596C18.1504 14.8096 18.0004 14.2496 17.2204 13.4796L16.0204 12.2796C15.5304 11.8496 15.2304 11.1996 15.2004 10.4796C15.1704 9.71961 15.4704 8.96961 16.0204 8.41961L17.2204 7.21961C17.9604 6.47961 18.1904 5.87961 18.0804 5.61961C17.9704 5.35961 17.4004 5.09961 16.3504 5.09961H5.15039C4.73039 5.09961 4.40039 4.75961 4.40039 4.34961C4.40039 3.93961 4.74039 3.59961 5.15039 3.59961H16.3504C18.5404 3.59961 19.2404 4.50961 19.4704 5.04961C19.6904 5.58961 19.8404 6.72961 18.2804 8.28961L17.0804 9.48961C16.8304 9.73961 16.6904 10.0896 16.7004 10.4396C16.7104 10.7396 16.8304 11.0096 17.0404 11.1996L18.2804 12.4296C19.8104 13.9596 19.6604 15.0996 19.4404 15.6496C19.2104 16.1796 18.5004 17.0996 16.3504 17.0996Z" fill="#667085"/>
</svg>
