<svg width="24" height="25" viewBox="0 0 24 25" fill="none" xmlns="http://www.w3.org/2000/svg">
<path d="M21.5 11.7496V4.94961C21.5 3.44961 20.86 2.84961 19.27 2.84961H15.23C13.64 2.84961 13 3.44961 13 4.94961V11.7496C13 13.2496 13.64 13.8496 15.23 13.8496H19.27C20.86 13.8496 21.5 13.2496 21.5 11.7496Z" fill="#0C0A40"/>
<path d="M11 13.9496V20.7496C11 22.2496 10.36 22.8496 8.77 22.8496H4.73C3.14 22.8496 2.5 22.2496 2.5 20.7496V13.9496C2.5 12.4496 3.14 11.8496 4.73 11.8496H8.77C10.36 11.8496 11 12.4496 11 13.9496Z" fill="#0C0A40"/>
<path d="M21.5 20.7496V17.9496C21.5 16.4496 20.86 15.8496 19.27 15.8496H15.23C13.64 15.8496 13 16.4496 13 17.9496V20.7496C13 22.2496 13.64 22.8496 15.23 22.8496H19.27C20.86 22.8496 21.5 22.2496 21.5 20.7496Z" fill="#0C0A40"/>
<path d="M11 7.74961V4.94961C11 3.44961 10.36 2.84961 8.77 2.84961H4.73C3.14 2.84961 2.5 3.44961 2.5 4.94961V7.74961C2.5 9.24961 3.14 9.84961 4.73 9.84961H8.77C10.36 9.84961 11 9.24961 11 7.74961Z" fill="#0C0A40"/>
</svg>
