<svg width="100" height="26" viewBox="0 0 100 26" fill="none" xmlns="http://www.w3.org/2000/svg">
<path d="M14.2402 12.3496H9.24023V16.9816L13.8587 17.335L14.2402 12.3496ZM14.2402 12.2168L13.497 7.27235L9.24023 7.91225V12.2168H14.2402ZM0.992188 1.04395V-3.95605H-4.00781V1.04395H0.992188ZM0.992188 25H-4.00781V30H0.992188V25ZM6.00586 4.7793V-0.220703H1.00586V4.7793H6.00586ZM6.00586 11.0049H1.00586V16.0049H6.00586V11.0049ZM6.00586 21.2646H1.00586V26.2646H6.00586V21.2646ZM6.00586 14.3086V9.30859H1.00586V14.3086H6.00586ZM11.6006 30C14.9677 30 18.2825 29.1318 20.8512 27.0024C23.5263 24.7848 24.8848 21.6091 24.8848 18.1436H14.8848C14.8848 18.8948 14.6578 19.1473 14.4691 19.3038C14.174 19.5484 13.3467 20 11.6006 20V30ZM24.8848 18.1436C24.8848 12.0911 20.2053 7.7915 14.6218 7.36419L13.8587 17.335C14.3651 17.3738 14.6188 17.5561 14.7183 17.6573C14.8007 17.741 14.8848 17.8671 14.8848 18.1436H24.8848ZM19.2402 12.3496V12.2168H9.24023V12.3496H19.2402ZM14.9835 17.1612C19.9044 16.4215 23.7393 12.1841 23.7393 7.02051H13.7393C13.7393 7.06372 13.7275 7.11149 13.6778 7.16838C13.6227 7.23137 13.5556 7.26354 13.497 7.27235L14.9835 17.1612ZM23.7393 7.02051C23.7393 3.79008 22.4383 0.833529 19.9285 -1.21624C17.5301 -3.17494 14.4707 -3.95605 11.418 -3.95605V6.04395C12.8643 6.04395 13.4655 6.41664 13.603 6.52898C13.6631 6.57809 13.6741 6.6034 13.6809 6.61828C13.69 6.63822 13.7393 6.75217 13.7393 7.02051H23.7393ZM11.418 -3.95605H0.992188V6.04395H11.418V-3.95605ZM-4.00781 1.04395V25H5.99219V1.04395H-4.00781ZM0.992188 30H11.6006V20H0.992188V30ZM6.00586 9.7793H10.123V-0.220703H6.00586V9.7793ZM10.123 9.7793C10.5916 9.7793 10.2381 9.89657 9.67674 9.43709C9.381 9.19503 9.13424 8.87202 8.97762 8.51231C8.82745 8.16742 8.80859 7.90237 8.80859 7.80078H18.8086C18.8086 5.58083 17.9749 3.30645 16.0105 1.69865C14.1916 0.209873 11.9953 -0.220703 10.123 -0.220703V9.7793ZM8.80859 7.80078C8.80859 7.67266 8.83504 7.3882 8.99932 7.03706C9.16867 6.67508 9.41787 6.38623 9.67228 6.19154C10.1308 5.84067 10.2999 6.00488 9.6084 6.00488V16.0049C11.5897 16.0049 13.8589 15.5797 15.7493 14.1332C17.8242 12.5454 18.8086 10.2091 18.8086 7.80078H8.80859ZM9.6084 6.00488H6.00586V16.0049H9.6084V6.00488ZM11.0059 11.0049V4.7793H1.00586V11.0049H11.0059ZM11.0059 21.2646V14.3086H1.00586V21.2646H11.0059ZM6.00586 19.3086H10.2061V9.30859H6.00586V19.3086ZM10.2061 19.3086C10.6208 19.3086 10.8401 19.3519 10.9097 19.3699C10.9754 19.387 10.8293 19.3607 10.5969 19.1864C10.3424 18.9955 10.0958 18.7087 9.93374 18.3576C9.78019 18.0248 9.77148 17.7852 9.77148 17.7451H19.7715C19.7715 15.2914 18.8088 12.8453 16.5969 11.1864C14.6176 9.70191 12.2414 9.30859 10.2061 9.30859V19.3086ZM9.77148 17.7451C9.77148 17.7519 9.77102 17.5561 9.9021 17.2566C10.0423 16.9363 10.2682 16.6479 10.5305 16.4407C10.7734 16.2488 10.9447 16.2065 10.9182 16.2137C10.885 16.2228 10.7031 16.2646 10.3223 16.2646V26.2646C12.3684 26.2646 14.7582 25.8449 16.7298 24.2873C18.8959 22.5759 19.7715 20.124 19.7715 17.7451H9.77148ZM10.3223 16.2646H6.00586V26.2646H10.3223V16.2646ZM25.8082 25H20.8082V30H25.8082V25ZM30.6559 25V30H35.6559V25H30.6559ZM30.6559 7.20312H35.6559V2.20312H30.6559V7.20312ZM25.8082 7.20312V2.20312H20.8082V7.20312H25.8082ZM25.8082 30H30.6559V20H25.8082V30ZM35.6559 25V7.20312H25.6559V25H35.6559ZM30.6559 2.20312H25.8082V12.2031H30.6559V2.20312ZM20.8082 7.20312V25H30.8082V7.20312H20.8082ZM28.232 10.2441C32.3256 10.2441 35.8219 7.02036 35.8219 2.7373H25.8219C25.8219 1.24331 27.0604 0.244141 28.232 0.244141V10.2441ZM35.8219 2.7373C35.8219 -1.5837 32.3036 -4.76953 28.232 -4.76953V5.23047C27.0824 5.23047 25.8219 4.23604 25.8219 2.7373H35.8219ZM28.232 -4.76953C24.1605 -4.76953 20.6422 -1.5837 20.6422 2.7373H30.6422C30.6422 4.23604 29.3817 5.23047 28.232 5.23047V-4.76953ZM20.6422 2.7373C20.6422 7.02036 24.1385 10.2441 28.232 10.2441V0.244141C29.4037 0.244141 30.6422 1.24331 30.6422 2.7373H20.6422ZM37.4094 25H32.4094V30H37.4094V25ZM42.257 25V30H47.257V25H42.257ZM42.257 1.04395H47.257V-3.95605H42.257V1.04395ZM37.4094 1.04395V-3.95605H32.4094V1.04395H37.4094ZM37.4094 30H42.257V20H37.4094V30ZM47.257 25V1.04395H37.257V25H47.257ZM42.257 -3.95605H37.4094V6.04395H42.257V-3.95605ZM32.4094 1.04395V25H42.4094V1.04395H32.4094ZM49.0438 25H44.0438V30H49.0438V25ZM53.8914 25V30H58.8914V25H53.8914ZM53.8914 1.04395H58.8914V-3.95605H53.8914V1.04395ZM49.0438 1.04395V-3.95605H44.0438V1.04395H49.0438ZM49.0438 30H53.8914V20H49.0438V30ZM58.8914 25V1.04395H48.8914V25H58.8914ZM53.8914 -3.95605H49.0438V6.04395H53.8914V-3.95605ZM44.0438 1.04395V25H54.0438V1.04395H44.0438ZM72.2826 14.2422V19.2422H77.5064L77.2778 14.0234L72.2826 14.2422ZM64.7289 14.2422L59.7428 13.8701L59.3419 19.2422H64.7289V14.2422ZM72.349 19.5547V14.5547H68.7313L67.5998 17.9909L72.349 19.5547ZM64.6791 17.2139V12.2139H59.6791V17.2139H64.6791ZM76.9477 17.2139V22.2139H81.9477V17.2139H76.9477ZM76.7982 19.5547L81.7412 20.3079L82.6179 14.5547H76.7982V19.5547ZM68.5473 15.4072C68.4788 15.4072 68.3272 15.3934 68.1309 15.313C67.9326 15.2317 67.7446 15.1048 67.591 14.946C67.2708 14.6145 67.2827 14.3529 67.2874 14.461L77.2778 14.0234C77.183 11.857 76.4063 9.67803 74.7828 7.99764C73.1282 6.28514 70.8922 5.40723 68.5473 5.40723V15.4072ZM72.2826 9.24219H64.7289V19.2422H72.2826V9.24219ZM69.715 14.6143C69.7202 14.5447 69.7216 14.7385 69.4715 14.9932C69.349 15.118 69.1897 15.23 69.0048 15.3072C68.8186 15.385 68.6554 15.4072 68.5473 15.4072V5.40723C63.3932 5.40723 60.0713 9.46761 59.7428 13.8701L69.715 14.6143ZM67.5998 17.9909C67.761 17.5016 68.0837 17.1479 68.3863 16.957C68.6676 16.7795 68.8342 16.7959 68.7631 16.7959V26.7959C72.1529 26.7959 75.8185 25.0049 77.0982 21.1184L67.5998 17.9909ZM68.7631 16.7959C68.7353 16.7959 68.8174 16.7921 68.967 16.853C69.1206 16.9156 69.2861 17.023 69.4277 17.1728C69.7318 17.4946 69.6791 17.7232 69.6791 17.5127H59.6791C59.6791 19.8423 60.4316 22.2124 62.1592 24.0408C63.9138 25.8977 66.301 26.7959 68.7631 26.7959V16.7959ZM69.6791 17.5127V17.2139H59.6791V17.5127H69.6791ZM64.6791 22.2139H76.9477V12.2139H64.6791V22.2139ZM81.9477 17.2139V15.7363H71.9477V17.2139H81.9477ZM81.9477 15.7363C81.9477 12.028 80.8135 8.47922 78.3011 5.81729C75.7588 3.12371 72.2575 1.82129 68.4975 1.82129V11.8213C69.9171 11.8213 70.641 12.2703 71.0288 12.6812C71.4465 13.1238 71.9477 14.0326 71.9477 15.7363H81.9477ZM68.4975 1.82129C64.6396 1.82129 61.0882 3.20901 58.5385 6.0041C56.0343 8.74929 54.9145 12.3874 54.9145 16.1846H64.9145C64.9145 14.304 65.4548 13.2605 65.9264 12.7435C66.3525 12.2763 67.0926 11.8213 68.4975 11.8213V1.82129ZM54.9145 16.1846C54.9145 19.9788 56.022 23.6271 58.616 26.3605C61.2415 29.1269 64.8458 30.3818 68.6801 30.3818V20.3818C67.0358 20.3818 66.2573 19.8853 65.8696 19.4767C65.4504 19.035 64.9145 18.0847 64.9145 16.1846H54.9145ZM68.6801 30.3818C74.7752 30.3818 80.7319 26.9311 81.7412 20.3079L71.8553 18.8015C71.8015 19.1547 71.6418 19.448 71.2616 19.7227C70.8379 20.0289 70.0115 20.3818 68.6801 20.3818V30.3818ZM76.7982 14.5547H72.349V24.5547H76.7982V14.5547ZM95.0068 21.9453V16.9453H91.7463L90.4314 19.929L95.0068 21.9453ZM95.0898 21.9453H100.09V16.9453H95.0898V21.9453ZM95.0898 25H90.0898V30H95.0898V25ZM99.8711 25V30H104.871V25H99.8711ZM99.8711 1.04395H104.871V-3.95605H99.8711V1.04395ZM95.0234 1.04395V-3.95605H90.0234V1.04395H95.0234ZM95.0234 10.2578V15.2578H100.023V10.2578H95.0234ZM94.9238 10.2578L90.3422 12.2599L91.6522 15.2578H94.9238V10.2578ZM89.4619 30.2822C93.882 30.2822 97.848 27.8971 99.5823 23.9616L90.4314 19.929C90.4211 19.9523 90.3838 20.0218 90.2593 20.099C90.1388 20.1738 89.8888 20.2822 89.4619 20.2822V30.2822ZM95.0068 26.9453H95.0898V16.9453H95.0068V26.9453ZM90.0898 21.9453V25H100.09V21.9453H90.0898ZM95.0898 30H99.8711V20H95.0898V30ZM104.871 25V1.04395H94.8711V25H104.871ZM99.8711 -3.95605H95.0234V6.04395H99.8711V-3.95605ZM90.0234 1.04395V10.2578H100.023V1.04395H90.0234ZM95.0234 5.25781H94.9238V15.2578H95.0234V5.25781ZM99.5055 8.25574C97.7992 4.35086 93.9347 1.9209 89.4951 1.9209V11.9209C89.8867 11.9209 90.0914 12.0194 90.1761 12.073C90.2644 12.1289 90.312 12.1908 90.3422 12.2599L99.5055 8.25574ZM89.4951 1.9209C85.8292 1.9209 82.5361 3.42166 80.2705 6.25633C78.1031 8.96836 77.207 12.47 77.207 16.0684H87.207C87.207 14.0221 87.7221 12.9501 88.0822 12.4995C88.3443 12.1716 88.6952 11.9209 89.4951 11.9209V1.9209ZM77.207 16.0684C77.207 19.6761 78.0913 23.1873 80.2428 25.9104C82.4966 28.7629 85.7868 30.2822 89.4619 30.2822V20.2822C88.6878 20.2822 88.3506 20.0418 88.0892 19.711C87.7256 19.2507 87.207 18.155 87.207 16.0684H77.207ZM91.1055 15.8057C90.9789 15.8057 90.7488 15.7743 90.488 15.6428C90.229 15.5123 90.0625 15.3451 89.9783 15.2324C89.902 15.1302 89.9232 15.1152 89.9646 15.2623C90.006 15.4096 90.0566 15.6828 90.0566 16.1016H100.057C100.057 13.7545 99.504 11.2742 97.9892 9.24686C96.3687 7.0781 93.9032 5.80566 91.1055 5.80566V15.8057ZM90.0566 16.1016C90.0566 16.5268 90.0055 16.8 89.965 16.9437C89.9247 17.0868 89.9062 17.0646 89.9881 16.9556C90.0783 16.8357 90.2498 16.6672 90.509 16.5381C90.7686 16.4088 90.9918 16.3809 91.1055 16.3809V26.3809C93.8745 26.3809 96.3445 25.1406 97.9794 22.9672C99.5061 20.9378 100.057 18.4519 100.057 16.1016H90.0566ZM91.1055 16.3809C91.1943 16.3809 91.4131 16.403 91.6808 16.5356C91.9506 16.6693 92.1338 16.8478 92.2329 16.9808C92.3221 17.1006 92.3045 17.1294 92.2636 16.9808C92.2226 16.8315 92.1709 16.5467 92.1709 16.1016H82.1709C82.1709 18.4208 82.6913 20.9114 84.2132 22.9545C85.8588 25.1638 88.3454 26.3809 91.1055 26.3809V16.3809ZM92.1709 16.1016C92.1709 15.6628 92.2221 15.3781 92.264 15.2252C92.3059 15.0726 92.3262 15.0942 92.2426 15.2071C92.1496 15.3328 91.9716 15.5102 91.702 15.6453C91.4328 15.7803 91.2071 15.8057 91.1055 15.8057V5.80566C88.3164 5.80566 85.8347 7.05479 84.2035 9.25965C82.6935 11.3006 82.1709 13.7854 82.1709 16.1016H92.1709Z" fill="#003566"/>
</svg>
