<svg width="24" height="25" viewBox="0 0 24 25" fill="none" xmlns="http://www.w3.org/2000/svg">
<path d="M10.1103 11.499H7.4603C6.8303 11.499 6.32031 12.009 6.32031 12.639V17.759H10.1103V11.499V11.499Z" stroke="#667085" stroke-width="1.5" stroke-miterlimit="10" stroke-linecap="round" stroke-linejoin="round"/>
<path d="M12.7616 6.94922H11.2415C10.6115 6.94922 10.1016 7.45923 10.1016 8.08923V17.7493H13.8916V8.08923C13.8916 7.45923 13.3916 6.94922 12.7616 6.94922Z" stroke="#667085" stroke-width="1.5" stroke-miterlimit="10" stroke-linecap="round" stroke-linejoin="round"/>
<path d="M16.5484 13.1992H13.8984V17.7493H17.6884V14.3392C17.6784 13.7092 17.1684 13.1992 16.5484 13.1992Z" stroke="#667085" stroke-width="1.5" stroke-miterlimit="10" stroke-linecap="round" stroke-linejoin="round"/>
<path d="M9 22.3496H15C20 22.3496 22 20.3496 22 15.3496V9.34961C22 4.34961 20 2.34961 15 2.34961H9C4 2.34961 2 4.34961 2 9.34961V15.3496C2 20.3496 4 22.3496 9 22.3496Z" stroke="#667085" stroke-width="1.5" stroke-linecap="round" stroke-linejoin="round"/>
</svg>
